<svg xmlns="http://www.w3.org/2000/svg" version="1.1" xmlns:xlink="http://www.w3.org/1999/xlink" xmlns:svgjs="http://svgjs.com/svgjs" width="512" height="512" x="0" y="0" viewBox="0 0 512 512" style="enable-background:new 0 0 512 512" xml:space="preserve" class=""><g><linearGradient id="a" x1="74.981" x2="437.019" y1="74.981" y2="437.019" gradientUnits="userSpaceOnUse"><stop stop-opacity="1" stop-color="#649dce" offset="0"></stop><stop stop-opacity="0.47" stop-color="#649dce" offset="1"></stop></linearGradient><linearGradient id="b" x1="230.734" x2="304.234" y1="256" y2="256" gradientUnits="userSpaceOnUse"><stop offset="0" stop-color="#f2b084"></stop><stop offset="1" stop-color="#f19274"></stop></linearGradient><linearGradient id="c" x1="129.672" x2="382.328" y1="278.969" y2="278.969" gradientUnits="userSpaceOnUse"><stop stop-opacity="1" stop-color="#f4ce93" offset="0"></stop><stop stop-opacity="1" stop-color="#ffbe92" offset="1"></stop></linearGradient><circle cx="256" cy="256" r="256" fill="url(#a)" data-original="url(#a)" class=""></circle><path fill="#dce8f3" d="M306.531 202.406v-22.969c26.596 0 48.234-21.638 48.234-48.234s-21.638-48.234-48.234-48.234-48.234 21.638-48.234 48.234h-22.969C235.328 91.942 267.27 60 306.531 60c39.262 0 71.203 31.942 71.203 71.203 0 39.262-31.941 71.203-71.203 71.203z" data-original="#92f785" class=""></path><path fill="#f2b084" d="M180.203 246.047c0-13.954-11.312-25.266-25.266-25.266s-25.266 11.312-25.266 25.266v33.688l73.5 34.453z" data-original="#f2b084" class=""></path><path fill="#f19274" d="m253.703 314.188-22.969-79.625c0-13.954-11.312-25.266-25.266-25.266s-25.266 11.312-25.266 25.266v79.625z" data-original="#f19274" class=""></path><path fill="url(#b)" d="M281.266 211.594c0-13.954-11.312-25.266-25.266-25.266s-25.266 11.312-25.266 25.266v114.078h73.5z" data-original="url(#b)" class=""></path><path fill="#f19274" d="M357.062 232.266c-13.954 0-25.266 11.312-25.266 25.266l-34.453 102.594 84.984-34.453v-68.141c.001-13.955-11.311-25.266-25.265-25.266z" data-original="#f19274" class=""></path><path fill="url(#c)" d="M331.797 325.672V131.203c0-13.954-11.312-25.266-25.266-25.266s-25.266 11.312-25.266 25.266v148.531H129.672v45.938C129.672 395.441 186.231 452 256 452s126.328-56.559 126.328-126.328z" data-original="url(#c)" class=""></path></g></svg>
