<svg xmlns="http://www.w3.org/2000/svg" version="1.1" xmlns:xlink="http://www.w3.org/1999/xlink" xmlns:svgjs="http://svgjs.com/svgjs" width="512" height="512" x="0" y="0" viewBox="0 0 512 512" style="enable-background:new 0 0 512 512" xml:space="preserve" class=""><g><path fill="#5d7083" d="m285.312 311.466 26.08-26.08 101.916 101.917-26.08 26.08z" data-original="#5d7083"></path><path fill="#3b4754" d="m499.244 469.799-29.445 29.445c-3.905 3.905-10.237 3.905-14.142 0l-86.205-86.205c-3.905-3.905-3.905-10.237 0-14.142l29.445-29.445c3.905-3.905 10.237-3.905 14.142 0l86.205 86.205c3.905 3.905 3.905 10.237 0 14.142z" data-original="#3b4754"></path><path fill="#2a333c" d="m499.244 455.657-12.596-12.596c3.905 3.905 3.905 10.237 0 14.142l-29.445 29.445c-3.905 3.905-10.237 3.905-14.142 0l12.596 12.596c3.905 3.905 10.237 3.905 14.142 0l29.445-29.445c3.905-3.905 3.905-10.237 0-14.142z" data-original="#2a333c"></path><path fill="#649dce" d="m370.671 341.226-29.445 29.445c-3.905 3.905-10.237 3.905-14.142 0l-86.205-86.205c-3.905-3.905-3.905-10.237 0-14.142l29.445-29.445c3.905-3.905 10.237-3.905 14.142 0l86.205 86.205c3.905 3.905 3.905 10.237 0 14.142z" data-original="#649dce"></path><circle cx="201.919" cy="201.919" r="192.092" fill="#83b0d8" data-original="#83b0d8" class=""></circle><path fill="#649dce" d="M330.125 58.885c30.499 34.003 49.059 78.935 49.059 128.208 0 106.089-86.002 192.092-192.091 192.092-49.272 0-94.205-18.56-128.208-49.059 35.169 39.21 86.216 63.885 143.033 63.885 106.089 0 192.092-86.002 192.092-192.092 0-56.817-24.675-107.865-63.885-143.034z" data-original="#649dce"></path><circle cx="201.919" cy="201.919" r="162.865" fill="#e0ebf5" data-original="#e0ebf5"></circle><path fill="#f7f7ff" d="M201.918 39.053c-89.948 0-162.865 72.917-162.865 162.865 0 44.974 18.229 85.69 47.702 115.163L317.082 86.755c-29.473-29.472-70.189-47.702-115.164-47.702z" data-original="#f7f7ff" class=""></path></g></svg>
